<?xml version="1.0" encoding="UTF-8" standalone="no"?>
<!-- Created with Inkscape (http://www.inkscape.org/) -->

<svg
   xmlns:dc="http://purl.org/dc/elements/1.1/"
   xmlns:cc="http://creativecommons.org/ns#"
   xmlns:rdf="http://www.w3.org/1999/02/22-rdf-syntax-ns#"
   xmlns:svg="http://www.w3.org/2000/svg"
   xmlns="http://www.w3.org/2000/svg"
   xmlns:sodipodi="http://sodipodi.sourceforge.net/DTD/sodipodi-0.dtd"
   xmlns:inkscape="http://www.inkscape.org/namespaces/inkscape"
   version="1.1"
   id="svg815"
   width="189.12"
   height="145.60001"
   viewBox="0 0 189.12 145.60001"
   sodipodi:docname="Logo_Atlas_RGB_v2.svg"
   inkscape:version="0.92.4 (5da689c313, 2019-01-14)"
   inkscape:export-filename="C:\Projekte\BA5\AtlasLibs\hmi.ctr\AtlasLogo.png"
   inkscape:export-xdpi="194.92386"
   inkscape:export-ydpi="194.92386">
  <metadata
     id="metadata821">
    <rdf:RDF>
      <cc:Work
         rdf:about="">
        <dc:format>image/svg+xml</dc:format>
        <dc:type
           rdf:resource="http://purl.org/dc/dcmitype/StillImage" />
        <dc:title></dc:title>
      </cc:Work>
    </rdf:RDF>
  </metadata>
  <defs
     id="defs819" />
  <sodipodi:namedview
     pagecolor="#ffffff"
     bordercolor="#666666"
     borderopacity="1"
     objecttolerance="10"
     gridtolerance="10"
     guidetolerance="10"
     inkscape:pageopacity="0"
     inkscape:pageshadow="2"
     inkscape:window-width="640"
     inkscape:window-height="480"
     id="namedview817"
     showgrid="false"
     inkscape:zoom="4.7044032"
     inkscape:cx="125.03465"
     inkscape:cy="74.649155"
     inkscape:current-layer="svg815" />
  <path
     style="fill:#f37820;stroke-width:0.32000002"
     d="m 167.96741,119.06808 c -0.40546,-0.16117 -3.32368,-5.88113 -3.10964,-6.09517 0.0528,-0.0528 0.93876,0.12349 1.96878,0.39178 2.63481,0.68628 4.4705,0.63561 5.25105,-0.14494 1.10654,-1.10655 0.37722,-2.21117 -2.37359,-3.595 -3.15416,-1.58675 -4.58127,-2.77087 -5.45667,-4.52756 -1.29533,-2.59939 -0.8842,-4.81758 1.18554,-6.396245 3.20353,-2.44345 9.50182,-2.560858 13.2475,-0.246951 0.91894,0.567677 1.01298,0.792125 1.22243,2.917656 0.12479,1.26646 0.17559,2.35396 0.11288,2.41667 -0.0627,0.0627 -0.86308,-0.2567 -1.77862,-0.70979 -2.77769,-1.37466 -5.77329,-1.41199 -6.48572,-0.0808 -0.58413,1.09146 0.39934,2.08974 3.62452,3.67907 3.45992,1.70502 5.15959,3.21619 5.60907,4.98703 1.06468,4.19451 -3.48938,7.66625 -9.97379,7.60339 -1.43346,-0.0139 -2.80314,-0.10351 -3.04374,-0.19914 z"
     id="path859" />
  <path
     style="fill:#f37820;stroke-width:0.32000002"
     d="m 77.364857,118.80782 c 0,-0.31317 9.2894,-20.433605 9.78567,-21.195336 0.44289,-0.679796 0.68091,-0.72 4.26253,-0.72 2.66123,0 3.88308,0.119385 4.09378,0.4 0.47862,0.637408 9.698023,20.891906 9.698023,21.305986 0,0.26593 -1.18701,0.37402 -4.10761,0.37402 h -4.107613 l -0.82843,-1.92 -0.82844,-1.92 -6.173137,-0.0188 c 0,0 -0.02427,-0.033 0.941697,-2.22121 0.531049,-1.20297 0.531716,-1.18167 0.531716,-1.18167 0,0 2.833934,-0.3121 2.916124,-0.5263 0.0822,-0.21421 -0.8708,-2.16534 -0.8708,-2.16534 L 91.269,106.54229 c -0.07923,-0.13924 -1.633833,2.93498 -2.988633,6.24747 l -2.46328,6.02273 -4.22611,0.0893 c -2.32437,0.0491 -4.22612,0.007 -4.22612,-0.094 z"
     id="path857"
     inkscape:connector-curvature="0"
     sodipodi:nodetypes="csscssccccscccsscccc" />
  <path
     style="fill:#f37820;stroke-width:0.32000002"
     d="m 107.43996,111.06234 c -0.003,-4.36142 -0.1151,-8.10323 -0.24978,-8.31513 -0.14817,-0.2331 -1.25215,-0.42269 -2.79511,-0.48 l -2.55021,-0.0947 V 99.6125 97.052504 h 9.44 9.44 v 2.559996 2.56001 l -2.56,0.16 -2.56,0.16 -0.16,8.16 -0.16,8.16 -3.92,0.0898 -3.92,0.0898 -0.005,-7.92985 z"
     id="path855" />
  <path
     style="fill:#f37820;stroke-width:0.32000002"
     d="m 123.27034,118.57005 c -0.0849,-0.22133 -0.11641,-5.15334 -0.0699,-10.96 l 0.0844,-10.557566 h 4 4 l 0.0856,8.144596 c 0.0634,6.02622 0.1882,8.20975 0.48,8.3951 0.2169,0.13778 1.22237,0.25271 2.23437,0.25541 1.012,0.003 1.84,0.0589 1.84,0.12495 0,0.066 -0.50036,1.21802 -1.11192,2.56 l -1.11192,2.43995 h -5.13812 c -3.83189,0 -5.17739,-0.10231 -5.29256,-0.40244 z"
     id="path853" />
  <path
     inkscape:connector-curvature="0"
     id="path827"
     d="m 0.22546613,145.41473 c 0,-0.0754 0.18829,-0.32743 0.41841,-0.56 C 1.2121361,144.28041 67.42547,1.1217689 67.42547,0.46744723 c 0,-0.4754807 2.293526,-0.5122937 27.24951,-0.4373817 23.93174,0.07184 27.25893,0.14024 27.32683,0.5617971 0.0425,0.2640001 9.72882,21.28424837 21.52509,46.71166437 11.79627,25.427413 21.3787,46.343414 21.29428,46.480003 -0.0844,0.136586 -12.65535,0.248339 -27.93541,0.248339 -21.84299,0 -27.84976,-0.08551 -28.09922,-0.4 -0.17452,-0.22 -3.08902,-6.952 -6.47669,-14.960001 -3.387667,-8.008 -6.362214,-14.956001 -6.610108,-15.440001 -0.47217,-0.921888 -1.213677,-1.161549 -1.485114,-0.48 -0.08762,0.22 -7.612464,18.688002 -16.721878,41.040003 -9.109418,22.352 -16.550084,40.892 -16.53482,41.2 0.02624,0.5296 -1.621676,0.56 -30.352354,0.56 -16.70906,0 -30.38011987,-0.0617 -30.38011987,-0.13714 z M 128.54547,145.07172 c 0,-0.26409 -2.03211,-5.34009 -4.5158,-11.28 -2.48368,-5.93992 -4.58867,-11.05261 -4.67776,-11.36153 -0.15372,-0.53309 1.33214,-0.55753 29.19038,-0.48 l 29.35234,0.0817 5.21521,11.2 c 2.86836,6.16 5.3728,11.37392 5.56542,11.58649 0.19261,0.21258 0.35021,0.46458 0.35021,0.56 0,0.0954 -13.608,0.17351 -30.24,0.17351 -26.671,0 -30.24,-0.0567 -30.24,-0.48015 z"
     style="fill:#000000;stroke-width:0.32000002" />
  <path
     style="fill:#f37820;stroke-width:0.32000002"
     d="m 136.52798,118.80792 c 0,-0.31317 9.2894,-20.4336 9.78567,-21.19533 0.44289,-0.6798 0.68091,-0.72 4.26253,-0.72 2.66123,0 3.88308,0.11938 4.09378,0.4 0.47862,0.6374 9.69803,20.8919 9.69803,21.30598 0,0.26593 -1.18701,0.37402 -4.10761,0.37402 h -4.10762 l -0.82843,-1.92 -0.82844,-1.92 -6.17313,-0.0188 c 0,0 -0.0243,-0.033 0.94169,-2.22121 0.53105,-1.20297 0.53172,-1.18167 0.53172,-1.18167 0,0 2.83393,-0.3121 2.91612,-0.5263 0.0822,-0.21421 -0.8708,-2.16534 -0.8708,-2.16534 l -1.40936,-2.47688 c -0.0792,-0.13924 -1.63384,2.93498 -2.98864,6.24747 l -2.46328,6.02273 -4.22611,0.0893 c -2.32437,0.0491 -4.22612,0.007 -4.22612,-0.094 z"
     id="path857-7"
     inkscape:connector-curvature="0"
     sodipodi:nodetypes="csscssccccscccsscccc" />
</svg>
